<svg width="155" height="101" viewBox="0 0 155 101" fill="none" xmlns="http://www.w3.org/2000/svg">
<path d="M134.901 65.1872L140.656 40.6149L120.003 53.4255L122.094 30.1642L104.574 43.4991L101.958 18.1402L89.6686 34.6067L77.3713 0.625L65.0815 34.6067L52.7916 18.1402L50.1763 43.4991L32.6558 30.1642L34.7466 53.4255L14.0862 40.6149L19.8415 65.1872L0.5 60.4825L20.3361 92.7186H134.466L154.243 60.4825L134.894 65.1872H134.901Z" fill="#FFEC03"/>
<path d="M134.466 92.7261H20.336C18.3081 92.7261 16.6641 94.3696 16.6641 96.3969V96.7041C16.6641 98.7314 18.3081 100.375 20.336 100.375H134.466C136.494 100.375 138.138 98.7314 138.138 96.7041V96.3969C138.138 94.3696 136.494 92.7261 134.466 92.7261Z" fill="#FFDC01"/>
<path d="M77.3709 0.625L65.0811 34.6067L77.4008 92.7261L77.3709 0.625Z" fill="#FFB10F"/>
<path d="M52.7914 18.1401L50.1836 43.4916L77.401 92.726L52.7914 18.1401Z" fill="#FFB10F"/>
<path d="M32.6641 30.1641L34.7548 53.4254L77.402 92.7261L32.6641 30.1641Z" fill="#FFB10F"/>
<path d="M14.0938 40.6223L19.849 65.1871L77.4013 92.7261L14.0938 40.6223Z" fill="#FFB10F"/>
<path d="M0.5 60.4824L20.3361 92.7261H77.4012L0.5 60.4824Z" fill="#FFB10F"/>
<path d="M101.951 18.1401L89.6612 34.6066L77.4014 92.726L101.951 18.1401Z" fill="#FFB10F"/>
<path d="M122.087 30.1641L104.566 43.4916L77.4014 92.7261L122.087 30.1641Z" fill="#FFB10F"/>
<path d="M140.649 40.6223L119.996 53.4254L77.4014 92.7261L140.649 40.6223Z" fill="#FFB10F"/>
<path d="M134.901 65.1871L77.4014 92.7261H134.467L154.25 60.4824L134.901 65.1871Z" fill="#FFB10F"/>
<g style="mix-blend-mode:screen">
<path d="M75.1154 97.7229C101.306 97.7229 124.342 96.4719 137.659 94.5765C137.029 93.4677 135.838 92.7261 134.466 92.7261H20.3358C18.7546 92.7261 17.4057 93.7299 16.8887 95.1309C30.5648 96.7116 51.5624 97.7304 75.1154 97.7304V97.7229Z" fill="#FFDC01"/>
</g>
</svg>
