<svg width="120" height="103" viewBox="0 0 120 103" fill="none" xmlns="http://www.w3.org/2000/svg">
<g clip-path="url(#clip0_276_740)">
<path d="M94.068 31.9437C94.068 31.9437 98.9505 53.2287 94.068 67.1862C89.1855 81.1437 77.6655 93.3912 77.6655 93.3912H63.0105C63.0105 93.3912 52.5405 49.0362 94.068 31.9437Z" fill="#CA5700"/>
<path d="M63.0176 93.3913H77.6726C69.5201 69.6538 94.0751 31.9438 94.0751 31.9438C52.5551 49.0438 63.0176 93.3913 63.0176 93.3913Z" fill="#CA5700"/>
<path d="M25.6827 31.9437C25.6827 31.9437 20.8002 53.2287 25.6827 67.1862C30.5652 81.1437 42.0852 93.3912 42.0852 93.3912H56.7402C56.7402 93.3912 67.2102 49.0362 25.6827 31.9437Z" fill="#CA5700"/>
<path d="M25.6826 31.9437C25.6826 31.9437 54.0851 69.6537 42.0851 93.3912H56.7401C56.7401 93.3912 67.2101 49.0362 25.6826 31.9437Z" fill="#CA5700"/>
<path d="M78.3701 70.3212C78.3701 70.3212 74.1851 32.6337 59.8751 14.8438C45.5726 32.6412 41.3801 70.3212 41.3801 70.3212C33.0101 52.5312 0.557617 43.4562 0.557617 43.4562C9.28012 56.0187 20.0201 93.6987 20.0201 93.6987H99.7301C99.7301 93.6987 110.47 56.0112 119.193 43.4562C119.193 43.4562 86.7401 52.5312 78.3701 70.3212Z" fill="#FF9B50"/>
<path d="M56.2148 20.1613C56.2148 20.1613 71.6573 26.0188 78.3698 70.3213C78.3698 70.3213 74.1848 32.6337 59.8748 14.8438C58.5698 16.4638 57.3548 18.2487 56.2148 20.1537V20.1613Z" fill="#FF9B50"/>
<g style="mix-blend-mode:screen">
<path d="M42.8285 90.376L10.8485 55.7185C8.83103 53.5285 12.1385 50.4685 14.156 52.666C14.201 52.7185 13.061 51.211 42.821 90.3835L42.8285 90.376Z" fill="#CA5700"/>
</g>
<g style="mix-blend-mode:screen">
<path d="M80.2832 90.3762L106.518 52.8912C108.228 50.4537 111.918 53.0337 110.208 55.4712C110.163 55.5312 111.716 53.7237 80.2832 90.3762Z" fill="#CA5700"/>
</g>
<g style="mix-blend-mode:screen">
<path d="M59.8749 89.3786L57.6249 27.3686C57.5199 24.4886 62.0199 24.3311 62.1249 27.2186C62.1249 27.3611 62.2149 24.7511 59.8749 89.3786Z" fill="#CA5700"/>
</g>
<path d="M99.7301 93.6987H20.0201C16.7951 96.9237 14.6801 98.8062 11.4551 102.031H108.295C105.07 98.8062 102.955 96.9237 99.7301 93.6987Z" fill="#FF9B50"/>
<path d="M64.9078 12.6837C62.2678 15.4662 57.8803 15.5787 55.0978 12.9387C52.3153 10.2987 52.2028 5.91123 54.8428 3.12873C57.4828 0.346226 61.8703 0.233726 64.6528 2.87373C67.4353 5.51373 67.5478 9.90123 64.9078 12.6837Z" fill="#FF9B50"/>
<path d="M66.3708 5.46875C64.7583 12.0312 55.5258 12.6237 53.1408 6.24875C52.5633 8.58875 53.2308 11.1688 55.1058 12.9462C57.8883 15.5863 62.2758 15.4663 64.9158 12.6912C66.8058 10.7038 67.2783 7.88375 66.3783 5.47625L66.3708 5.46875Z" fill="#FF9B50"/>
<path d="M63.8509 4.37372C59.3809 1.73372 56.9659 4.25372 54.8809 5.88122C57.4534 1.45622 61.8034 1.85372 63.8509 4.37372Z" fill="#FF9B50"/>
</g>
<defs>
<clipPath id="clip0_276_740">
<rect width="118.635" height="101.062" fill="white" transform="translate(0.557617 0.96875)"/>
</clipPath>
</defs>
</svg>
