<svg width="99" height="109" viewBox="0 0 99 109" fill="none" xmlns="http://www.w3.org/2000/svg">
<g clip-path="url(#clip0_276_671)">
<path d="M58.7214 55.3141C50.7864 13.5916 50.6964 13.0966 50.6964 13.0966C50.6964 13.0966 50.6064 13.5916 42.6714 55.3141C34.1214 46.7641 13.7139 44.1466 13.7139 44.1466C27.3189 49.7266 30.4914 102.069 30.4914 102.069H71.0439C71.0439 102.069 74.0814 49.7341 87.6864 44.1466C87.6864 44.1466 67.2789 46.7641 58.7289 55.3141H58.7214Z" fill="#FFDC01"/>
<g style="mix-blend-mode:screen" opacity="0.43">
<path d="M50.6964 13.0966C50.6964 13.0966 50.5689 13.7566 42.6714 55.3141C34.1214 46.7641 13.7139 44.1466 13.7139 44.1466C27.3189 49.7266 30.4914 102.069 30.4914 102.069H49.6014C57.5889 80.6115 50.7039 13.1341 50.6964 13.0966Z" fill="#FFDC01"/>
</g>
<path d="M38.5236 85.8466C37.2336 71.5141 28.0386 52.2541 28.0086 52.2091C26.8686 50.3491 23.5986 52.2541 24.9261 54.3541C24.9261 54.3541 34.3536 67.1941 37.5936 85.9741C38.3361 89.7466 38.6661 93.5941 38.8986 97.4491C38.9736 93.5941 38.9586 89.7016 38.5236 85.8391V85.8466Z" fill="#FFE7B6"/>
<path d="M7.58594 48.7065C11.4174 48.7065 14.5234 45.6005 14.5234 41.769C14.5234 37.9376 11.4174 34.8315 7.58594 34.8315C3.75446 34.8315 0.648438 37.9376 0.648438 41.769C0.648438 45.6005 3.75446 48.7065 7.58594 48.7065Z" fill="#FFDC01"/>
<path d="M10.6157 35.5291C13.9607 41.4016 7.67566 48.1816 1.55566 45.1966C2.74816 47.2891 5.00566 48.7066 7.58566 48.7066C11.4182 48.7066 14.5232 45.6016 14.5232 41.7691C14.5232 39.0241 12.9332 36.6541 10.6157 35.5291Z" fill="#FFB703"/>
<path d="M8.03658 36.474C2.97408 37.6365 2.95908 41.1315 2.56908 43.7415C1.39158 38.7615 4.81908 36.054 8.03658 36.474Z" fill="#FFF876"/>
<path d="M55.7291 12.2341C53.0891 15.0166 48.7016 15.1291 45.9191 12.4891C43.1366 9.84908 43.0241 5.46158 45.6641 2.67908C48.3041 -0.10342 52.6916 -0.21592 55.4741 2.42408C58.2566 5.06408 58.3691 9.45158 55.7291 12.2341Z" fill="#FFDC01"/>
<path d="M57.1911 5.0191C55.5786 11.5816 46.3536 12.1741 43.9611 5.7991C43.3836 8.1391 44.0511 10.7191 45.9261 12.4966C48.7086 15.1366 53.0961 15.0166 55.7361 12.2416C57.6261 10.2541 58.0986 7.4341 57.1986 5.0266L57.1911 5.0191Z" fill="#FFB703"/>
<path d="M54.6721 3.92395C50.2021 1.28395 47.7871 3.80395 45.7021 5.43145C48.2746 1.00645 52.6246 1.40395 54.6721 3.92395Z" fill="#FFF876"/>
<path d="M92.1567 47.814C95.9817 47.5365 98.8542 44.2215 98.5767 40.3965C98.2992 36.5715 94.9767 33.699 91.1592 33.9765C87.3342 34.254 84.4617 37.5765 84.7392 41.394C85.0167 45.219 88.3317 48.0915 92.1567 47.814Z" fill="#FFDC01"/>
<path d="M85.6543 44.3715C91.7518 47.289 98.0593 40.5315 94.6468 34.6365C96.8218 35.679 98.3968 37.824 98.5768 40.404C98.8543 44.229 95.9743 47.544 92.1568 47.8215C89.4193 48.0165 86.9368 46.599 85.6543 44.3715Z" fill="#FFB703"/>
<path d="M86.404 41.7316C87.199 36.6016 90.679 36.3316 93.259 35.7541C88.2115 34.9366 85.7515 38.5516 86.404 41.7316Z" fill="#FFF876"/>
<path d="M70.9991 102.069H30.4016C28.2716 102.069 26.5391 103.794 26.5391 105.931V108.481H74.8541V105.931C74.8541 103.801 73.1291 102.069 70.9916 102.069H70.9991Z" fill="#FFB10F"/>
<path d="M74.8541 105.931C74.8541 103.801 73.1291 102.069 70.9916 102.069C72.8066 102.069 74.0516 106.456 70.4891 107.206C67.5116 107.836 36.5516 107.409 26.5391 107.259V108.481H74.8541V105.931Z" fill="#D68A05"/>
</g>
<defs>
<clipPath id="clip0_276_671">
<rect width="97.95" height="107.962" fill="white" transform="translate(0.650391 0.518738)"/>
</clipPath>
</defs>
</svg>
