<svg width="155" height="115" viewBox="0 0 155 115" fill="none" xmlns="http://www.w3.org/2000/svg">
<g clip-path="url(#clip0_276_694)">
<path d="M134.698 79.7409L140.458 55.1409L119.788 67.9659L121.881 44.6784L104.346 58.0284L101.728 32.6409L89.428 49.1259L77.128 15.1059L64.828 49.1259L52.528 32.6409L49.9105 58.0284L32.3755 44.6784L34.468 67.9659L13.7905 55.1409L19.5505 79.7409L0.185547 75.0309L20.488 107.303H133.603L154.063 75.0309L134.698 79.7409Z" fill="#C5D4EA"/>
<path d="M20.0305 107.311H134.263C136.288 107.311 137.938 108.953 137.938 110.986V111.293C137.938 113.318 136.295 114.968 134.263 114.968H20.0305C18.0055 114.968 16.3555 113.326 16.3555 111.293V110.978C16.3555 108.953 17.998 107.303 20.0305 107.303V107.311Z" fill="#889BB5"/>
<path d="M77.1203 15.1058L64.8203 49.1258L77.1503 107.311L77.1203 15.1058Z" fill="#9EA8BA"/>
<path d="M52.5277 32.6409L49.9102 58.0209L77.1502 107.311L52.5277 32.6409Z" fill="#9EA8BA"/>
<path d="M32.376 44.6784L34.4685 67.9659L77.151 107.311L32.376 44.6784Z" fill="#9EA8BA"/>
<path d="M13.79 55.1409L19.55 79.7409L77.15 107.311L13.79 55.1409Z" fill="#9EA8BA"/>
<path d="M0.185547 75.0309L20.488 107.311H77.1506L0.185547 75.0309Z" fill="#889BB5"/>
<path d="M101.72 32.6409L89.4204 49.1259L77.1504 107.311L101.72 32.6409Z" fill="#9EA8BA"/>
<path d="M121.873 44.6784L104.338 58.0209L77.1504 107.311L121.873 44.6784Z" fill="#9EA8BA"/>
<path d="M140.45 55.1409L119.78 67.9659L77.1504 107.311L140.45 55.1409Z" fill="#9EA8BA"/>
<path d="M134.698 79.7409L77.1504 107.311H133.603L154.063 75.0309L134.698 79.7409Z" fill="#889BB5"/>
<g style="mix-blend-mode:screen" opacity="0.67">
<path d="M74.8629 112.313C101.075 112.313 124.13 111.061 137.458 109.163C136.828 108.053 135.635 107.311 134.263 107.311H20.0379C18.4554 107.311 17.1054 108.316 16.5879 109.718C30.2754 111.301 51.2904 112.321 74.8629 112.321V112.313Z" fill="#C5D4EA"/>
</g>
<path d="M82.1832 11.7459C79.5432 14.5284 75.1557 14.6409 72.3732 12.0009C69.5907 9.36086 69.4782 4.97336 72.1182 2.19086C74.7582 -0.59164 79.1457 -0.70414 81.9282 1.93586C84.7107 4.57586 84.8232 8.96336 82.1832 11.7459Z" fill="#C5D4EA"/>
<path d="M83.6452 4.53088C82.0327 11.0934 72.8077 11.6859 70.4152 5.31088C69.8377 7.65088 70.5052 10.2309 72.3802 12.0084C75.1627 14.6484 79.5502 14.5284 82.1902 11.7534C84.0802 9.76588 84.5527 6.94588 83.6527 4.53838L83.6452 4.53088Z" fill="#889BB5"/>
<g style="mix-blend-mode:screen">
<path d="M81.1253 3.43591C76.6553 0.795915 74.2403 3.31591 72.1553 4.94341C74.7278 0.518415 79.0778 0.915915 81.1253 3.43591Z" fill="#C5D4EA"/>
</g>
<path d="M16.4375 50.7308C15.65 54.4808 11.975 56.8808 8.22497 56.0933C4.47497 55.3058 2.07497 51.6308 2.86247 47.8808C3.64997 44.1308 7.32497 41.7308 11.075 42.5183C14.825 43.3058 17.225 46.9808 16.4375 50.7308Z" fill="#C5D4EA"/>
<path d="M13.8952 43.8234C15.9652 50.2584 8.42016 55.5984 3.03516 51.4284C3.77016 53.7234 5.69016 55.5684 8.21766 56.1009C11.9677 56.8884 15.6427 54.4884 16.4302 50.7384C16.9927 48.0534 15.9202 45.4059 13.8877 43.8309L13.8952 43.8234Z" fill="#889BB5"/>
<g style="mix-blend-mode:screen">
<path d="M11.181 44.2209C5.99097 44.3184 5.25597 47.7309 4.33347 50.2059C4.19847 45.0909 8.12097 43.1484 11.181 44.2209Z" fill="#C5D4EA"/>
</g>
<path d="M144.913 56.2359C141.08 56.2584 137.96 53.1684 137.938 49.3359C137.915 45.5034 141.005 42.3834 144.838 42.3609C148.67 42.3384 151.79 45.4284 151.813 49.2609C151.835 53.0934 148.745 56.2134 144.913 56.2359Z" fill="#C5D4EA"/>
<path d="M151.13 52.2984C145.273 55.6734 138.463 49.4259 141.41 43.2834C139.318 44.4909 137.923 46.7484 137.938 49.3359C137.96 53.1684 141.08 56.2584 144.913 56.2359C147.658 56.2209 150.02 54.6159 151.13 52.2984Z" fill="#889BB5"/>
<g style="mix-blend-mode:screen">
<path d="M150.178 49.7259C148.986 44.6709 145.498 44.6709 142.881 44.2959C147.853 43.0884 150.583 46.5084 150.178 49.7259Z" fill="#C5D4EA"/>
</g>
<g style="mix-blend-mode:screen" opacity="0.45">
<path d="M77.1201 15.1059L77.1501 107.311L89.4201 49.1259L77.1201 15.1059Z" fill="#C5D4EA"/>
</g>
</g>
<defs>
<clipPath id="clip0_276_694">
<rect width="153.878" height="114.938" fill="white" transform="translate(0.186523 0.03125)"/>
</clipPath>
</defs>
</svg>
