<svg width="45" height="44" viewBox="0 0 45 44" fill="none" xmlns="http://www.w3.org/2000/svg">
<g clip-path="url(#clip0_315_512)">
<path d="M38.7106 13.3283C39.4256 12.6133 39.4256 11.4583 38.7106 10.7433L33.5223 5.55499C32.8073 4.83999 31.6523 4.83999 30.9373 5.55499L22.7056 13.7867L15.574 6.65499C14.144 5.22499 11.8156 5.22499 10.3856 6.65499L6.90229 10.1383C5.47229 11.5683 5.47229 13.8967 6.90229 15.3267L14.034 22.4583L5.76562 30.7267V38.5H13.539L21.8256 30.2133L28.9573 37.345C30.699 39.0867 33.0456 38.445 34.1456 37.345L37.629 33.8617C39.059 32.4317 39.059 30.1033 37.629 28.6733L30.4973 21.5417L38.7106 13.3283ZM9.50562 12.7233L12.9706 9.23999L15.299 11.5683L13.1356 13.75L15.7206 16.335L17.9023 14.1533L20.1023 16.3533L16.619 19.8367L9.50562 12.7233ZM30.094 26.3633L27.9123 28.545L30.4973 31.13L32.679 28.9483L35.0073 31.2767L31.524 34.76L24.3923 27.6283L27.8756 24.145L30.094 26.3633ZM12.0173 34.8333H9.43229V32.2483L27.0506 14.63L29.434 17.0133L29.6356 17.215L12.0173 34.8333ZM29.6356 12.0267L32.2206 9.44165L34.8056 12.0267L32.2206 14.6117L29.6356 12.0267Z" fill="#66968B"/>
</g>
<defs>
<clipPath id="clip0_315_512">
<rect width="44" height="44" fill="white" transform="translate(0.265625)"/>
</clipPath>
</defs>
</svg>
